<svg width="16" height="17" viewBox="0 0 16 17" fill="none" xmlns="http://www.w3.org/2000/svg">
<path d="M7.66666 15C3.89999 15 0.833328 11.9334 0.833328 8.16671C0.833328 4.40004 3.89999 1.33337 7.66666 1.33337C11.4333 1.33337 14.5 4.40004 14.5 8.16671C14.5 11.9334 11.4333 15 7.66666 15ZM7.66666 2.33337C4.44666 2.33337 1.83333 4.95337 1.83333 8.16671C1.83333 11.38 4.44666 14 7.66666 14C10.8867 14 13.5 11.38 13.5 8.16671C13.5 4.95337 10.8867 2.33337 7.66666 2.33337Z" fill="#868A90"/>
<path d="M14.6667 15.6666C14.54 15.6666 14.4133 15.62 14.3133 15.52L12.98 14.1866C12.7867 13.9933 12.7867 13.6733 12.98 13.48C13.1733 13.2866 13.4933 13.2866 13.6867 13.48L15.02 14.8133C15.2133 15.0066 15.2133 15.3266 15.02 15.52C14.92 15.62 14.7933 15.6666 14.6667 15.6666Z" fill="#868A90"/>
</svg>
