<svg width="25" height="12" viewBox="0 0 25 12" fill="none" xmlns="http://www.w3.org/2000/svg">
<g clip-path="url(#clip0_1_999)">
<g clip-path="url(#clip1_1_999)">
<mask id="mask0_1_999" style="mask-type:alpha" maskUnits="userSpaceOnUse" x="0" y="0" width="22" height="12">
<path d="M2.66669 0.332031H19.3333C20.8061 0.332031 22 1.52594 22 2.9987V8.9987C22 10.4715 20.8061 11.6654 19.3333 11.6654H2.66669C1.19391 11.6654 0 10.4715 0 8.9987V2.9987C0 1.52594 1.19391 0.332031 2.66669 0.332031Z" fill="black"/>
</mask>
<g mask="url(#mask0_1_999)">
<path d="M2.66667 0.332031H19.3333V0.332031C20.8061 0.332031 22 1.52594 22 2.9987V8.9987V8.9987C22 10.4715 20.8061 11.6654 19.3333 11.6654H2.66667V11.6654C1.19391 11.6654 0 10.4715 0 8.9987V2.9987V2.9987C0 1.52594 1.19391 0.332031 2.66667 0.332031Z" stroke="black" stroke-opacity="0.34902" stroke-width="2"/>
</g>
</g>
<mask id="mask1_1_999" style="mask-type:alpha" maskUnits="userSpaceOnUse" x="23" y="4" width="2" height="4">
<path d="M23 4V8C23.8047 7.66122 24.328 6.87313 24.328 6C24.328 5.12687 23.8047 4.33878 23 4Z" fill="black"/>
</mask>
<g mask="url(#mask1_1_999)">
<path d="M18 -1H29.328V13H18V-1Z" fill="black" fill-opacity="0.4"/>
</g>
<mask id="mask2_1_999" style="mask-type:alpha" maskUnits="userSpaceOnUse" x="2" y="2" width="18" height="8">
<path d="M3.33331 2.33203H18.6667C19.403 2.33203 20 2.92899 20 3.66537V8.33203C20 9.06841 19.403 9.66537 18.6667 9.66537H3.33331C2.59698 9.66537 2 9.06841 2 8.33203V3.66537C2 2.92899 2.59698 2.33203 3.33331 2.33203Z" fill="black"/>
</mask>
<g mask="url(#mask2_1_999)">
<path d="M-3 -2.66797H25V14.6654H-3V-2.66797Z" fill="black"/>
</g>
</g>
<defs>
<clipPath id="clip0_1_999">
<rect width="24.328" height="11.3333" fill="white" transform="translate(0 0.332031)"/>
</clipPath>
<clipPath id="clip1_1_999">
<rect width="22" height="11.3333" fill="white" transform="translate(0 0.332031)"/>
</clipPath>
</defs>
</svg>
