<svg width="18" height="12" viewBox="0 0 18 12" fill="none" xmlns="http://www.w3.org/2000/svg">
<g clip-path="url(#clip0_1_1023)">
<g clip-path="url(#clip1_1_1023)">
<mask id="mask0_1_1023" style="mask-type:luminance" maskUnits="userSpaceOnUse" x="0" y="0" width="18" height="12">
<path fill-rule="evenodd" clip-rule="evenodd" d="M1.66797 7.33594H2.66797C3.22028 7.33594 3.66797 7.78366 3.66797 8.33594V10.3359C3.66797 10.8882 3.22028 11.3359 2.66797 11.3359H1.66797C1.11569 11.3359 0.667969 10.8882 0.667969 10.3359V8.33594C0.667969 7.78366 1.11569 7.33594 1.66797 7.33594ZM6.33398 5.33594H7.33398C7.88626 5.33594 8.33398 5.78366 8.33398 6.33594V10.3359C8.33398 10.8882 7.88626 11.3359 7.33398 11.3359H6.33398C5.78168 11.3359 5.33398 10.8882 5.33398 10.3359V6.33594C5.33398 5.78366 5.78168 5.33594 6.33398 5.33594ZM11.002 3H12.002C12.5543 3 13.002 3.44772 13.002 4V10.3333C13.002 10.8856 12.5543 11.3333 12.002 11.3333H11.002C10.4496 11.3333 10.002 10.8856 10.002 10.3333V4C10.002 3.44772 10.4496 3 11.002 3ZM15.668 0.667969H16.668C17.2203 0.667969 17.668 1.11568 17.668 1.66797V10.3346C17.668 10.8869 17.2203 11.3346 16.668 11.3346H15.668C15.1157 11.3346 14.668 10.8869 14.668 10.3346V1.66797C14.668 1.11568 15.1157 0.667969 15.668 0.667969Z" fill="white"/>
</mask>
<g mask="url(#mask0_1_1023)">
<path d="M-4.33203 -4.33203H22.668V16.3346H-4.33203V-4.33203Z" fill="black"/>
</g>
</g>
</g>
<defs>
<clipPath id="clip0_1_1023">
<rect width="17" height="10.6667" fill="white" transform="translate(0.667969 0.667969)"/>
</clipPath>
<clipPath id="clip1_1_1023">
<rect width="17" height="10.6667" fill="white" transform="translate(0.667969 0.667969)"/>
</clipPath>
</defs>
</svg>
