<svg width="16" height="12" viewBox="0 0 16 12" fill="none" xmlns="http://www.w3.org/2000/svg">
<g clip-path="url(#clip0_1_1012)">
<g clip-path="url(#clip1_1_1012)">
<mask id="mask0_1_1012" style="mask-type:luminance" maskUnits="userSpaceOnUse" x="0" y="0" width="16" height="12">
<path fill-rule="evenodd" clip-rule="evenodd" d="M8.32996 2.60936C10.5459 2.60946 12.6771 3.46089 14.283 4.98769C14.404 5.10557 14.5973 5.10408 14.7164 4.98436L15.8724 3.81769C15.9327 3.75697 15.9663 3.67472 15.9658 3.58914C15.9653 3.50356 15.9307 3.42171 15.8697 3.36169C11.6546 -0.677854 5.00477 -0.677854 0.789678 3.36169C0.728582 3.42166 0.693975 3.50349 0.693365 3.58907C0.692876 3.67465 0.726385 3.75693 0.786657 3.81769L1.94297 4.98436C2.06208 5.10426 2.25547 5.10575 2.37638 4.98769C3.98246 3.46079 6.11387 2.60935 8.32996 2.60936ZM8.33073 6.40395C9.54823 6.40387 10.7223 6.8564 11.6247 7.67361C11.7468 7.7896 11.9391 7.78709 12.0581 7.66795L13.2128 6.50128C13.2735 6.44009 13.3073 6.35708 13.3064 6.2708C13.3056 6.18454 13.2702 6.10223 13.2081 6.04228C10.4599 3.48591 6.20393 3.48591 3.45573 6.04228C3.39375 6.10223 3.35823 6.18458 3.35744 6.27087C3.35664 6.35716 3.39055 6.44017 3.45143 6.50128L4.60573 7.66795C4.72475 7.78709 4.91704 7.7896 5.03914 7.67361C5.94093 6.85695 7.11403 6.40445 8.33073 6.40395ZM10.5497 9.18803C10.6116 9.12742 10.6456 9.04402 10.6438 8.95753C10.642 8.87101 10.6046 8.78906 10.5405 8.73104C9.26485 7.65215 7.39665 7.65215 6.12114 8.73104C6.05684 8.78902 6.01946 8.87094 6.01766 8.95745C6.01573 9.04395 6.04973 9.12738 6.11144 9.18803L8.10915 11.2037C8.16765 11.2629 8.24745 11.2963 8.33074 11.2963C8.41405 11.2963 8.49385 11.2629 8.55245 11.2037L10.5497 9.18803Z" fill="white"/>
</mask>
<g mask="url(#mask0_1_1012)">
<path d="M-4.30664 -4.66797H20.9658V16.2976H-4.30664V-4.66797Z" fill="black"/>
</g>
</g>
</g>
<defs>
<clipPath id="clip0_1_1012">
<rect width="15.2724" height="10.9656" fill="white" transform="translate(0.693359 0.332031)"/>
</clipPath>
<clipPath id="clip1_1_1012">
<rect width="15.2724" height="10.9656" fill="white" transform="translate(0.693359 0.332031)"/>
</clipPath>
</defs>
</svg>
