<svg width="34" height="32" viewBox="0 0 34 32" fill="none" xmlns="http://www.w3.org/2000/svg">
<path d="M30.5178 21.5866C30.5178 26.44 27.5973 29.3333 22.6985 29.3333H21.0969C20.3567 29.3333 19.7511 28.7333 19.7511 28V20.3066C19.7511 19.9466 20.0472 19.64 20.4105 19.64L22.7792 19.6C22.9676 19.5866 23.1291 19.4533 23.1695 19.2666L23.6406 16.72C23.6809 16.48 23.4925 16.2533 23.2368 16.2533L20.3702 16.2933C19.9933 16.2933 19.6973 16 19.6838 15.64L19.63 12.3733C19.63 12.16 19.8049 11.9733 20.0337 11.9733L23.2637 11.92C23.4925 11.92 23.6675 11.7466 23.6675 11.52L23.6136 8.31995C23.6136 8.09328 23.4387 7.91996 23.2099 7.91996L19.5761 7.97331C17.342 8.01331 15.5656 9.82662 15.6059 12.04L15.6732 15.7066C15.6867 16.08 15.3906 16.3733 15.0138 16.3866L13.3988 16.4133C13.17 16.4133 12.995 16.5866 12.995 16.8133L13.0354 19.3466C13.0354 19.5733 13.2103 19.7466 13.4391 19.7466L15.0541 19.72C15.431 19.72 15.727 20.0133 15.7405 20.3733L15.8616 27.9733C15.8751 28.72 15.2694 29.3333 14.5158 29.3333H11.4204C6.52154 29.3333 3.60109 26.44 3.60109 21.5733V10.4133C3.60109 5.55996 6.52154 2.66663 11.4204 2.66663H22.6985C27.5973 2.66663 30.5178 5.55996 30.5178 10.4133V21.5866Z" fill="white"/>
</svg>
