<svg width="19" height="19" viewBox="0 0 19 19" fill="none" xmlns="http://www.w3.org/2000/svg">
<path d="M16.6124 14.2463C16.6124 14.5163 16.5524 14.7938 16.4249 15.0638C16.2974 15.3338 16.1324 15.5888 15.9149 15.8288C15.5474 16.2338 15.1424 16.5263 14.6849 16.7138C14.2349 16.9013 13.7474 16.9988 13.2224 16.9988C12.4574 16.9988 11.6399 16.8188 10.7774 16.4513C9.91489 16.0838 9.05239 15.5888 8.19739 14.9663C7.33489 14.3363 6.51739 13.6388 5.73739 12.8663C4.96489 12.0863 4.26739 11.2688 3.64489 10.4138C3.02989 9.55878 2.53489 8.70378 2.17489 7.85628C1.81489 7.00128 1.63489 6.18378 1.63489 5.40378C1.63489 4.89378 1.72489 4.40628 1.90489 3.95628C2.08489 3.49878 2.36989 3.07878 2.76739 2.70378C3.24739 2.23128 3.77239 1.99878 4.32739 1.99878C4.53739 1.99878 4.74739 2.04378 4.93489 2.13378C5.12989 2.22378 5.30239 2.35878 5.43739 2.55378L7.17739 5.00628C7.31239 5.19378 7.40989 5.36628 7.47739 5.53128C7.54489 5.68878 7.58239 5.84628 7.58239 5.98878C7.58239 6.16878 7.52989 6.34878 7.42489 6.52128C7.32739 6.69378 7.18489 6.87378 7.00489 7.05378L6.43489 7.64628C6.35239 7.72878 6.31489 7.82628 6.31489 7.94628C6.31489 8.00628 6.32239 8.05878 6.33739 8.11878C6.35989 8.17878 6.38239 8.22378 6.39739 8.26878C6.53239 8.51628 6.76489 8.83878 7.09489 9.22878C7.43239 9.61878 7.79239 10.0163 8.18239 10.4138C8.58739 10.8113 8.97739 11.1788 9.37489 11.5163C9.76489 11.8463 10.0874 12.0713 10.3424 12.2063C10.3799 12.2213 10.4249 12.2438 10.4774 12.2663C10.5374 12.2888 10.5974 12.2963 10.6649 12.2963C10.7924 12.2963 10.8899 12.2513 10.9724 12.1688L11.5424 11.6063C11.7299 11.4188 11.9099 11.2763 12.0824 11.1863C12.2549 11.0813 12.4274 11.0288 12.6149 11.0288C12.7574 11.0288 12.9074 11.0588 13.0724 11.1263C13.2374 11.1938 13.4099 11.2913 13.5974 11.4188L16.0799 13.1813C16.2749 13.3163 16.4099 13.4738 16.4924 13.6613C16.5674 13.8488 16.6124 14.0363 16.6124 14.2463Z" fill="white"/>
</svg>
