<svg width="66" height="11" viewBox="0 0 66 11" fill="none" xmlns="http://www.w3.org/2000/svg">
<path d="M9.65493 5.68971L8.63871 6.98812C8.47481 7.17605 8.36007 7.55191 8.37647 7.80817L8.47481 9.48244C8.54037 10.5075 7.83557 11.0371 6.9177 10.6613L5.42616 10.0462C5.19669 9.9608 4.80331 9.9608 4.57384 10.0462L3.0823 10.6613C2.16443 11.0371 1.45963 10.5075 1.52519 9.48244L1.62353 7.80817C1.63993 7.55191 1.52519 7.17605 1.36129 6.98812L0.345068 5.68971C-0.294166 4.90383 -0.0155242 4.03253 0.935131 3.77626L2.49224 3.36624C2.7381 3.2979 3.03313 3.05872 3.16425 2.83662L4.03295 1.4357C4.57384 0.564401 5.42616 0.564401 5.96705 1.4357L6.83575 2.83662C6.96687 3.05872 7.2619 3.2979 7.50776 3.36624L9.06487 3.77626C10.0155 4.03253 10.2942 4.90383 9.65493 5.68971Z" fill="#FBC056"/>
<path d="M23.6549 5.68971L22.6387 6.98812C22.4748 7.17605 22.3601 7.55191 22.3765 7.80817L22.4748 9.48244C22.5404 10.5075 21.8356 11.0371 20.9177 10.6613L19.4262 10.0462C19.1967 9.9608 18.8033 9.9608 18.5738 10.0462L17.0823 10.6613C16.1644 11.0371 15.4596 10.5075 15.5252 9.48244L15.6235 7.80817C15.6399 7.55191 15.5252 7.17605 15.3613 6.98812L14.3451 5.68971C13.7058 4.90383 13.9845 4.03253 14.9351 3.77626L16.4922 3.36624C16.7381 3.2979 17.0331 3.05872 17.1643 2.83662L18.033 1.4357C18.5738 0.564401 19.4262 0.564401 19.967 1.4357L20.8357 2.83662C20.9669 3.05872 21.2619 3.2979 21.5078 3.36624L23.0649 3.77626C24.0155 4.03253 24.2942 4.90383 23.6549 5.68971Z" fill="#FBC056"/>
<path d="M37.6549 5.68971L36.6387 6.98812C36.4748 7.17605 36.3601 7.55191 36.3765 7.80817L36.4748 9.48244C36.5404 10.5075 35.8356 11.0371 34.9177 10.6613L33.4262 10.0462C33.1967 9.9608 32.8033 9.9608 32.5738 10.0462L31.0823 10.6613C30.1644 11.0371 29.4596 10.5075 29.5252 9.48244L29.6235 7.80817C29.6399 7.55191 29.5252 7.17605 29.3613 6.98812L28.3451 5.68971C27.7058 4.90383 27.9845 4.03253 28.9351 3.77626L30.4922 3.36624C30.7381 3.2979 31.0331 3.05872 31.1643 2.83662L32.033 1.4357C32.5738 0.564401 33.4262 0.564401 33.967 1.4357L34.8357 2.83662C34.9669 3.05872 35.2619 3.2979 35.5078 3.36624L37.0649 3.77626C38.0155 4.03253 38.2942 4.90383 37.6549 5.68971Z" fill="#FBC056"/>
<path d="M51.6549 5.68971L50.6387 6.98812C50.4748 7.17605 50.3601 7.55191 50.3765 7.80817L50.4748 9.48244C50.5404 10.5075 49.8356 11.0371 48.9177 10.6613L47.4262 10.0462C47.1967 9.9608 46.8033 9.9608 46.5738 10.0462L45.0823 10.6613C44.1644 11.0371 43.4596 10.5075 43.5252 9.48244L43.6235 7.80817C43.6399 7.55191 43.5252 7.17605 43.3613 6.98812L42.3451 5.68971C41.7058 4.90383 41.9845 4.03253 42.9351 3.77626L44.4922 3.36624C44.7381 3.2979 45.0331 3.05872 45.1643 2.83662L46.033 1.4357C46.5738 0.564401 47.4262 0.564401 47.967 1.4357L48.8357 2.83662C48.9669 3.05872 49.2619 3.2979 49.5078 3.36624L51.0649 3.77626C52.0155 4.03253 52.2942 4.90383 51.6549 5.68971Z" fill="#FBC056"/>
<path d="M65.6549 5.68971L64.6387 6.98812C64.4748 7.17605 64.3601 7.55191 64.3765 7.80817L64.4748 9.48244C64.5404 10.5075 63.8356 11.0371 62.9177 10.6613L61.4262 10.0462C61.1967 9.9608 60.8033 9.9608 60.5738 10.0462L59.0823 10.6613C58.1644 11.0371 57.4596 10.5075 57.5252 9.48244L57.6235 7.80817C57.6399 7.55191 57.5252 7.17605 57.3613 6.98812L56.3451 5.68971C55.7058 4.90383 55.9845 4.03253 56.9351 3.77626L58.4922 3.36624C58.7381 3.2979 59.0331 3.05872 59.1643 2.83662L60.033 1.4357C60.5738 0.564401 61.4262 0.564401 61.967 1.4357L62.8357 2.83662C62.9669 3.05872 63.2619 3.2979 63.5078 3.36624L65.0649 3.77626C66.0155 4.03253 66.2942 4.90383 65.6549 5.68971Z" fill="#E7E7E7"/>
</svg>
