<svg width="19" height="19" viewBox="0 0 19 19" fill="none" xmlns="http://www.w3.org/2000/svg">
<path fill-rule="evenodd" clip-rule="evenodd" d="M5.38467 15.8743H12.8847C15.1347 15.8743 16.6347 14.7493 16.6347 12.1243V6.87427C16.6347 4.24927 15.1347 3.12427 12.8847 3.12427H5.38467C3.13467 3.12427 1.63467 4.24927 1.63467 6.87427V12.1243C1.63467 14.7493 3.13467 15.8743 5.38467 15.8743ZM7.37945 9.56045C7.86695 9.95795 8.50444 10.1529 9.13444 10.1529C9.76444 10.1529 10.4019 9.95795 10.8819 9.56045L13.2294 7.68545C13.4769 7.49795 13.5144 7.13795 13.3194 6.89795C13.1319 6.65045 12.7719 6.61296 12.5319 6.80796L10.1844 8.68296C9.61444 9.14046 8.64694 9.14046 8.07694 8.68296L5.72945 6.80796C5.48945 6.61296 5.13695 6.65795 4.94195 6.89795C4.74695 7.13795 4.79194 7.49045 5.03194 7.68545L7.37945 9.56045Z" fill="white"/>
</svg>
