<svg width="39" height="32" viewBox="0 0 39 32" fill="none" xmlns="http://www.w3.org/2000/svg">
<path d="M11.73 15.9219C14.688 17.1459 16.524 19.7979 16.524 23.5719C16.524 28.5699 12.954 31.9359 8.364 31.9359C3.468 31.9359 0 28.4679 0 23.5719C0 21.2259 0.408 19.4919 2.244 14.7999L7.65 0.315918H15.81L11.73 15.9219ZM33.354 15.9219C36.312 17.1459 38.148 19.7979 38.148 23.5719C38.148 28.5699 34.578 31.9359 29.988 31.9359C25.092 31.9359 21.624 28.4679 21.624 23.5719C21.624 21.2259 22.032 19.4919 23.868 14.7999L29.274 0.315918H37.434L33.354 15.9219Z" fill="#A3E659"/>
</svg>
